<svg width="32" height="38" viewBox="0 0 32 38" fill="none" xmlns="http://www.w3.org/2000/svg">
<path d="M18.5627 26.5287C18.5639 26.5267 18.5646 26.5255 18.5658 26.5234C18.5648 26.5251 18.5638 26.5269 18.5627 26.5287Z" fill="white"/>
<path d="M18.58 26.4995C18.5758 26.507 18.5712 26.5149 18.5667 26.5233C18.5719 26.5136 18.5761 26.5064 18.58 26.4995Z" fill="white"/>
<path d="M18.5969 26.4701C18.5987 26.4668 18.599 26.4665 18.5969 26.4701V26.4701Z" fill="white"/>
<path d="M18.5533 26.5462C18.5481 26.5554 18.5436 26.5636 18.54 26.5698C18.5431 26.5645 18.5477 26.5564 18.5533 26.5462Z" fill="white"/>
<path fill-rule="evenodd" clip-rule="evenodd" d="M17.8947 8.8696C20.6461 6.5583 22.4845 1.3513 21.3531 1.12356C19.8498 0.820838 16.5853 2.14823 15.0075 2.3821C12.7696 2.65231 10.3321 -0.0446844 8.96398 1.45862C7.85157 2.6809 9.7615 7.12596 12.7496 9.06245C11.2091 9.81959 9.56062 11.1027 8.00028 12.7156C7.31903 13.4199 6.65459 14.1869 6.02328 15.0006C5.45637 15.7312 4.91618 16.4993 4.41451 17.2932C-0.650503 25.3082 -1.78816 35.9442 13.1644 37.0358C43.4118 39.2442 28.2658 13.1393 17.8947 8.8696ZM19.2656 28.376C19.9449 27.8495 20.3993 27.0741 20.4924 26.2165C20.5622 25.5734 20.4576 24.8965 20.1386 24.3292C20.1369 24.3262 20.1352 24.3232 20.1335 24.3202L20.1386 24.3292C20.1989 24.4349 20.2516 24.5273 20.1309 24.3154C20.0045 24.0936 20.0658 24.2013 20.1288 24.3117C19.7228 23.6026 19.0181 23.1529 18.2743 22.8596C17.7823 22.6656 17.2682 22.5315 16.7546 22.4085V19.0399C17.1868 19.1165 17.6193 19.2537 17.9759 19.517C18.1406 19.6385 18.2848 19.7859 18.3961 19.9578C18.4534 20.0462 18.5031 20.1399 18.5415 20.238C18.5795 20.3349 18.5982 20.4378 18.6354 20.535C18.7606 20.8618 19.0774 21.0895 19.427 21.1047C19.7828 21.1199 20.121 20.9147 20.2719 20.5923C20.3455 20.4349 20.3717 20.2572 20.346 20.0852C20.3299 19.9775 20.296 19.8712 20.2623 19.7679C20.2262 19.6572 20.1844 19.5486 20.1366 19.4425C19.9656 19.0621 19.7225 18.7132 19.4255 18.4205C18.7985 17.8023 17.96 17.4483 17.1026 17.2932C16.9872 17.2722 16.8712 17.2547 16.7549 17.2401V17.168V16.2619C16.7549 15.9179 16.5494 15.5973 16.2369 15.4534C15.9202 15.3076 15.5371 15.3646 15.2762 15.5953C15.0864 15.7631 14.9757 16.0084 14.9757 16.2619V17.168V17.2454C14.1026 17.369 13.2321 17.7054 12.5768 18.3086C12.2703 18.5907 12.0204 18.931 11.8468 19.3101C11.6614 19.7149 11.577 20.1553 11.5803 20.5997C11.5835 21.0373 11.6631 21.4779 11.8552 21.8734C12.0372 22.2481 12.3152 22.5647 12.6427 22.8195C13.3168 23.3436 14.1593 23.6165 14.9756 23.8278V27.3479C14.5581 27.2308 14.1577 27.034 13.8433 26.7311C13.6908 26.5841 13.5584 26.4148 13.4527 26.2311C13.3992 26.1378 13.3536 26.0399 13.3159 25.9391C13.2779 25.8377 13.2549 25.7326 13.221 25.63C13.1111 25.2971 12.805 25.0547 12.4557 25.0237C12.1008 24.9921 11.7532 25.1826 11.5883 25.4981C11.508 25.6514 11.4739 25.8271 11.4915 25.9993C11.5018 26.0997 11.531 26.1977 11.5598 26.2941L11.5617 26.3005C11.5941 26.4092 11.6311 26.5168 11.6726 26.6224C11.8316 27.0266 12.0615 27.401 12.3434 27.7309C12.9095 28.3929 13.6844 28.8403 14.5197 29.0698C14.6701 29.1111 14.8223 29.1457 14.9756 29.1748V30.2104C14.9756 30.5544 15.1809 30.875 15.4935 31.0188C15.8101 31.1647 16.1934 31.1077 16.4543 30.8769C16.6441 30.7091 16.7548 30.4639 16.7548 30.2104V29.2629C17.6486 29.1905 18.5483 28.9319 19.2656 28.376Z" fill="white" fill-opacity="0.25"/>
<path d="M4.41451 17.2932C-0.650503 25.3082 -1.78816 35.9442 13.1644 37.0358C43.4118 39.2442 28.2658 13.1393 17.8947 8.8696C20.6461 6.5583 22.4845 1.3513 21.3531 1.12356C19.8498 0.820838 16.5853 2.14823 15.0075 2.3821C12.7696 2.65231 10.3321 -0.0446843 8.96398 1.45862C7.85157 2.6809 9.7615 7.12596 12.7496 9.06245C11.2091 9.81959 9.56062 11.1027 8.00028 12.7156" stroke="white"/>
<path fill-rule="evenodd" clip-rule="evenodd" d="M19.2656 28.3762C19.9449 27.8497 20.3994 27.0742 20.4924 26.2167C20.5626 25.5702 20.4565 24.8896 20.1335 24.3204L20.1375 24.3274L20.1378 24.3279C20.1984 24.4342 20.2522 24.5284 20.131 24.3155C20.0046 24.0938 20.0659 24.2014 20.1289 24.3119C19.7229 23.6028 19.0181 23.1531 18.2744 22.8598C17.7823 22.6658 17.2683 22.5316 16.7547 22.4087V19.04C17.1868 19.1167 17.6193 19.2539 17.9759 19.5172C18.1406 19.6387 18.2849 19.7861 18.3962 19.958C18.4535 20.0464 18.5032 20.14 18.5415 20.2381C18.561 20.2876 18.5753 20.3386 18.5897 20.3896L18.5897 20.3896C18.6035 20.4386 18.6172 20.4876 18.6355 20.5352C18.7607 20.862 19.0775 21.0896 19.4271 21.1049C19.7829 21.1201 20.1211 20.9148 20.2719 20.5924C20.3455 20.4351 20.3717 20.2574 20.346 20.0854C20.33 19.9776 20.2961 19.8713 20.2624 19.7681C20.2262 19.6574 20.1844 19.5488 20.1367 19.4427C19.9657 19.0622 19.7226 18.7134 19.4255 18.4206C18.7986 17.8025 17.96 17.4485 17.1027 17.2933C16.9873 17.2724 16.8713 17.2549 16.7549 17.2402V17.1681V16.262C16.7549 15.918 16.5495 15.5975 16.237 15.4536C15.9203 15.3077 15.5372 15.3648 15.2762 15.5955C15.0864 15.7633 14.9757 16.0086 14.9757 16.262V17.1681V17.2456C14.1026 17.3692 13.2322 17.7056 12.5769 18.3087C12.2704 18.5908 12.0204 18.9312 11.8468 19.3102C11.6615 19.7151 11.577 20.1555 11.5804 20.5998C11.5836 21.0375 11.6632 21.478 11.8552 21.8735C12.0373 22.2483 12.3152 22.5648 12.6428 22.8196C13.3168 23.3437 14.1594 23.6167 14.9756 23.828V27.3481C14.5582 27.231 14.1578 27.0342 13.8434 26.7313C13.6909 26.5843 13.5585 26.4149 13.4528 26.2313C13.3992 26.138 13.3537 26.04 13.316 25.9393C13.2939 25.8803 13.2769 25.8202 13.2599 25.76C13.2476 25.7166 13.2353 25.6732 13.2211 25.6302C13.1111 25.2972 12.805 25.0549 12.4557 25.0239C12.1009 24.9922 11.7533 25.1828 11.5884 25.4983C11.5081 25.6516 11.474 25.8273 11.4916 25.9994C11.5018 26.0999 11.5311 26.1978 11.5598 26.2943L11.5617 26.3006C11.5941 26.4094 11.6312 26.517 11.6727 26.6226C11.8317 27.0267 12.0615 27.4011 12.3435 27.7311C12.9095 28.393 13.6844 28.8404 14.5198 29.07C14.6702 29.1112 14.8224 29.1459 14.9756 29.175V30.2105C14.9756 30.5545 15.181 30.8751 15.4936 31.019C15.8102 31.1648 16.1935 31.1079 16.4543 30.8771C16.6441 30.7093 16.7548 30.4641 16.7548 30.2105V29.2631C17.6487 29.1906 18.5484 28.9321 19.2656 28.3762ZM18.46 25.0258C18.3249 24.8779 18.154 24.7672 17.9774 24.6751C17.5929 24.4746 17.1724 24.353 16.7549 24.2432V27.4785C17.4326 27.4019 18.2106 27.156 18.5664 26.5233C18.7363 26.2211 18.7701 25.8498 18.7009 25.5134C18.6634 25.3311 18.5858 25.1637 18.46 25.0258ZM13.3664 20.4228C13.3866 20.2174 13.4597 20.0241 13.5762 19.854C13.8874 19.3997 14.4556 19.1627 14.9757 19.0518V21.9794C14.7698 21.9162 14.5788 21.8509 14.4091 21.7825C14.2067 21.7012 14.008 21.6052 13.8273 21.4823C13.6663 21.3725 13.5103 21.2362 13.4358 21.0515C13.3576 20.8577 13.3463 20.6287 13.3664 20.4228Z" fill="white"/>
<path opacity="0.25" d="M18.46 24.974C18.3249 24.8261 18.154 24.7155 17.9774 24.6233C17.5929 24.4228 17.1724 24.3012 16.7549 24.1914V27.4268C17.4326 27.3502 18.2106 27.1042 18.5664 26.4715C18.7363 26.1693 18.7701 25.798 18.7009 25.4616C18.6634 25.2793 18.5858 25.112 18.46 24.974Z" fill="white"/>
<path opacity="0.25" d="M13.5762 19.8022C13.4597 19.9723 13.3866 20.1656 13.3664 20.371C13.3463 20.5769 13.3576 20.8059 13.4358 20.9997C13.5103 21.1844 13.6663 21.3207 13.8273 21.4305C14.008 21.5534 14.2067 21.6494 14.4091 21.7308C14.5788 21.7991 14.7698 21.8645 14.9757 21.9276V19C14.4556 19.111 13.8874 19.3479 13.5762 19.8022Z" fill="white"/>
</svg>
