<svg width="57" height="75" viewBox="0 0 57 75" fill="none" xmlns="http://www.w3.org/2000/svg">
<path d="M56.5124 30.1514C57.6913 22.2707 51.691 18.0342 43.4864 15.208L46.1479 4.53261L39.6497 2.91316L37.0586 13.3073C35.3503 12.8816 33.5957 12.4799 31.8523 12.082L34.4619 1.61945L27.9675 0L25.3041 10.6717C23.8901 10.3497 22.502 10.0313 21.1547 9.69635L21.1621 9.66303L12.2005 7.42541L10.4718 14.3659C10.4718 14.3659 15.2932 15.4708 15.1914 15.5393C17.8232 16.1964 18.2989 17.938 18.2193 19.3187L15.1877 31.4803C15.369 31.5265 15.6041 31.5932 15.8632 31.6968C15.6467 31.6431 15.4153 31.5839 15.1766 31.5265L10.9271 48.5632C10.6051 49.3627 9.78889 50.562 7.94919 50.1067C8.01397 50.2011 3.22595 48.9278 3.22595 48.9278L0 56.3661L8.45631 58.4742C10.0295 58.8684 11.5712 59.2812 13.0889 59.6698L10.3996 70.4674L16.8904 72.0868L19.5537 61.404C21.3268 61.8852 23.048 62.3294 24.7323 62.7477L22.0782 73.3806L28.5764 75L31.2656 64.2228C42.3463 66.3197 50.6786 65.4739 54.1859 55.4518C57.0121 47.3824 54.0452 42.7276 48.2152 39.6923C52.4609 38.7132 55.6591 35.9203 56.5124 30.1514ZM41.6652 50.9711C39.6571 59.0406 26.0704 54.6782 21.6655 53.5844L25.2338 39.2795C29.6387 40.3789 43.764 42.5555 41.6652 50.9711ZM43.6752 30.0348C41.8429 37.3751 30.5345 33.6457 26.8662 32.7314L30.1014 19.7573C33.7697 20.6716 45.5834 22.378 43.6752 30.0348Z" fill="#12233F"/>
</svg>
