<svg width="38" height="37" viewBox="0 0 38 37" fill="none" xmlns="http://www.w3.org/2000/svg">
    <path d="M12.6719 22.2737H31.7268C32.1987 22.2737 32.6126 21.9617 32.7403 21.5085L36.9594 6.74261C37.05 6.42429 36.9879 6.08234 36.7882 5.81784C36.5883 5.55417 36.2774 5.39844 35.9456 5.39844H10.237L9.48309 2.00586C9.37598 1.52274 8.94751 1.17969 8.45312 1.17969H2.05469C1.47186 1.17969 1 1.65155 1 2.23438C1 2.81747 1.47186 3.28906 2.05469 3.28906H7.60663L11.4153 20.4277C10.2947 20.915 9.50781 22.0304 9.50781 23.3284C9.50781 25.073 10.9272 26.4925 12.6719 26.4925H31.7268C32.3099 26.4925 32.7815 26.0209 32.7815 25.4378C32.7815 24.8549 32.3099 24.3831 31.7268 24.3831H12.6719C12.091 24.3831 11.6172 23.9104 11.6172 23.3284C11.6172 22.7464 12.091 22.2737 12.6719 22.2737Z" fill="#CFCFD8"/>
    <path d="M11.6172 32.1641C11.6172 33.909 13.0366 35.3281 14.7815 35.3281C16.5262 35.3281 17.9456 33.909 17.9456 32.1641C17.9456 30.4194 16.5262 29 14.7815 29C13.0366 29 11.6172 30.4194 11.6172 32.1641Z" fill="#CFCFD8"/>
    <path d="M26.4534 32.1641C26.4534 33.909 27.8728 35.3281 29.6174 35.3281C31.3623 35.3281 32.7815 33.909 32.7815 32.1641C32.7815 30.4194 31.3623 29 29.6174 29C27.8728 29 26.4534 30.4194 26.4534 32.1641Z" fill="#CFCFD8"/>
    <path d="M23.0913 5.39844H10.237L9.48309 2.00586C9.37598 1.52274 8.94751 1.17969 8.45312 1.17969H2.05469C1.47186 1.17969 1 1.65155 1 2.23438C1 2.81747 1.47186 3.28906 2.05469 3.28906H7.60663L11.4153 20.4277C10.2947 20.915 9.50781 22.0304 9.50781 23.3284C9.50781 25.073 10.9272 26.4925 12.6719 26.4925H31.7268C32.3099 26.4925 32.7815 26.0209 32.7815 25.4378C32.7815 24.855 32.3099 24.3831 31.7268 24.3831H12.6719C12.091 24.3831 11.6172 23.9104 11.6172 23.3284C11.6172 22.7464 12.091 22.2737 12.6719 22.2737H31.7268C32.1987 22.2737 32.6126 21.9617 32.7403 21.5085L36.9594 6.74261C37.05 6.42429 36.9879 6.08234 36.7882 5.81784C36.5883 5.55417 36.2774 5.39844 35.9456 5.39844H29.5184" stroke="#11223E" stroke-width="0.999999"/>
    <path d="M11.1172 32.1641C11.1172 34.1852 12.7605 35.8281 14.7815 35.8281C16.8023 35.8281 18.4456 34.1851 18.4456 32.1641C18.4456 30.1433 16.8023 28.5 14.7815 28.5C12.7605 28.5 11.1172 30.1433 11.1172 32.1641Z" stroke="#11223E" stroke-width="0.999999"/>
    <path d="M25.9534 32.1641C25.9534 34.1851 27.5967 35.8281 29.6174 35.8281C31.6385 35.8281 33.2815 34.1851 33.2815 32.1641C33.2815 30.1433 31.6385 28.5 29.6174 28.5C27.5967 28.5 25.9534 30.1433 25.9534 32.1641Z" stroke="#11223E" stroke-width="0.999999"/>
</svg>
