<svg width="38" height="37" viewBox="0 0 38 37" fill="none" xmlns="http://www.w3.org/2000/svg">
    <path d="M12.6719 22.094H31.7268C32.1987 22.094 32.6126 21.782 32.7403 21.3288L36.9594 6.56293C37.05 6.2446 36.9879 5.90265 36.7882 5.63815C36.5883 5.37448 36.2774 5.21875 35.9456 5.21875H10.237L9.48309 1.82617C9.37598 1.34305 8.94751 1 8.45312 1H2.05469C1.47186 1 1 1.47186 1 2.05469C1 2.63779 1.47186 3.10938 2.05469 3.10938H7.60663L11.4153 20.248C10.2947 20.7353 9.50781 21.8507 9.50781 23.1487C9.50781 24.8933 10.9272 26.3128 12.6719 26.3128H31.7268C32.3099 26.3128 32.7815 25.8412 32.7815 25.2581C32.7815 24.6753 32.3099 24.2034 31.7268 24.2034H12.6719C12.091 24.2034 11.6172 23.7307 11.6172 23.1487C11.6172 22.5667 12.091 22.094 12.6719 22.094Z" fill="white" fill-opacity="0.25"/>
    <path d="M11.6172 31.9844C11.6172 33.7293 13.0366 35.1484 14.7815 35.1484C16.5262 35.1484 17.9456 33.7293 17.9456 31.9844C17.9456 30.2397 16.5262 28.8203 14.7815 28.8203C13.0366 28.8203 11.6172 30.2397 11.6172 31.9844Z" fill="white" fill-opacity="0.25"/>
    <path d="M26.4534 31.9844C26.4534 33.7293 27.8728 35.1484 29.6174 35.1484C31.3623 35.1484 32.7815 33.7293 32.7815 31.9844C32.7815 30.2397 31.3623 28.8203 29.6174 28.8203C27.8728 28.8203 26.4534 30.2397 26.4534 31.9844Z" fill="white" fill-opacity="0.25"/>
    <path d="M23.0913 5.21875H10.237L9.48309 1.82617C9.37598 1.34305 8.94751 1 8.45312 1H2.05469C1.47186 1 1 1.47186 1 2.05469C1 2.63779 1.47186 3.10938 2.05469 3.10938H7.60663L11.4153 20.248C10.2947 20.7353 9.50781 21.8507 9.50781 23.1487C9.50781 24.8933 10.9272 26.3128 12.6719 26.3128H31.7268C32.3099 26.3128 32.7815 25.8412 32.7815 25.2581C32.7815 24.6753 32.3099 24.2034 31.7268 24.2034H12.6719C12.091 24.2034 11.6172 23.7307 11.6172 23.1487C11.6172 22.5667 12.091 22.094 12.6719 22.094H31.7268C32.1987 22.094 32.6126 21.782 32.7403 21.3288L36.9594 6.56293C37.05 6.2446 36.9879 5.90265 36.7882 5.63815C36.5883 5.37448 36.2774 5.21875 35.9456 5.21875H29.5184" stroke="white" stroke-width="0.999999"/>
    <path d="M11.1172 31.9844C11.1172 34.0055 12.7605 35.6484 14.7815 35.6484C16.8023 35.6484 18.4456 34.0055 18.4456 31.9844C18.4456 29.9636 16.8023 28.3203 14.7815 28.3203C12.7605 28.3203 11.1172 29.9636 11.1172 31.9844Z" stroke="white" stroke-width="0.999999"/>
    <path d="M25.9534 31.9844C25.9534 34.0055 27.5967 35.6484 29.6174 35.6484C31.6385 35.6484 33.2815 34.0054 33.2815 31.9844C33.2815 29.9636 31.6385 28.3203 29.6174 28.3203C27.5967 28.3203 25.9534 29.9636 25.9534 31.9844Z" stroke="white" stroke-width="0.999999"/>
</svg>
