<svg width="36" height="36" viewBox="0 0 36 36" fill="none" xmlns="http://www.w3.org/2000/svg">
<circle cx="18" cy="18" r="17" fill="white" fill-opacity="0.25"/>
<path d="M26.2571 3.13647C23.8123 1.77538 20.9967 1 18 1C8.61116 1 1 8.61116 1 18C1 27.3888 8.61116 35 18 35C27.3888 35 35 27.3888 35 18C35 15.0033 34.2246 12.1877 32.8635 9.74286" stroke="white"/>
<path d="M18.0001 10.7144C13.9763 10.7144 10.7144 13.9763 10.7144 18.0001C10.7144 22.0239 13.9763 25.2858 18.0001 25.2858C22.0239 25.2858 25.2858 22.0239 25.2858 18.0001C25.2858 17.3711 25.2061 16.7608 25.0563 16.1786M21.0358 11.375C21.9522 11.7956 22.7664 12.4008 23.4306 13.1429M25.0563 16.1786L21.8858 18.4858M25.0563 16.1786L28.2001 18.0001" stroke="white"/>
</svg>
