<svg width="35" height="30" viewBox="0 0 35 30" fill="none" xmlns="http://www.w3.org/2000/svg">
    <path d="M19.5108 10.5874C19.5108 10.0157 19.2622 9.54817 18.866 9.23499C18.4813 8.93087 17.9822 8.78942 17.4787 8.78942C16.9587 8.78942 16.4525 8.92849 16.0648 9.235C15.6647 9.55128 15.4254 10.0207 15.4254 10.5874C15.4254 11.8656 15.5003 13.4179 15.5745 14.9539L15.5749 14.9631C15.6496 16.5095 15.7233 18.039 15.7233 19.2905C15.7233 19.7918 15.9541 20.1806 16.3194 20.4227C16.6591 20.6478 17.0818 20.7267 17.4787 20.7267C17.8101 20.7267 18.2136 20.6398 18.5506 20.431C18.9013 20.2138 19.2129 19.8369 19.2129 19.2905C19.2129 18.039 19.2866 16.5095 19.3612 14.9631L19.3617 14.954C19.4358 13.418 19.5108 11.8656 19.5108 10.5874ZM15.3615 23.3335C15.3615 24.4694 16.275 25.472 17.5 25.472C18.6569 25.472 19.6172 24.4737 19.6172 23.3335C19.6172 22.1679 18.6527 21.1951 17.5 21.1951C16.2791 21.1951 15.3615 22.1722 15.3615 23.3335Z" stroke="#11223E"/>
    <path d="M33.646 25.94L19.196 1.97598C18.8308 1.37034 18.1752 1 17.4679 1C16.7606 1 16.1049 1.37027 15.7397 1.97598L1.28986 25.94C0.914055 26.5633 0.902926 27.3407 1.26085 27.9744C1.61877 28.6081 2.29016 29 3.01796 29H31.9178C32.6456 29 33.317 28.6081 33.675 27.9744C34.0329 27.3406 34.0218 26.5633 33.646 25.94ZM17.4787 9.28942C18.3086 9.28942 19.0108 9.7576 19.0108 10.5874C19.0108 13.1196 18.7129 16.7583 18.7129 19.2905C18.7129 19.9502 17.9894 20.2267 17.4787 20.2267C16.7978 20.2267 16.2233 19.9501 16.2233 19.2905C16.2233 16.7583 15.9254 13.1196 15.9254 10.5874C15.9254 9.7576 16.6063 9.28942 17.4787 9.28942ZM17.5 24.972C16.5637 24.972 15.8615 24.206 15.8615 23.3335C15.8615 22.4398 16.5637 21.6951 17.5 21.6951C18.3724 21.6951 19.1172 22.4398 19.1172 23.3335C19.1172 24.206 18.3724 24.972 17.5 24.972Z" fill="#11223E" fill-opacity="0.25"/>
</svg>
