<svg width="32" height="32" viewBox="0 0 32 32" fill="none" xmlns="http://www.w3.org/2000/svg">
<path d="M16 31C24.2843 31 31 24.2843 31 16C31 7.71573 24.2843 1 16 1C7.71573 1 1 7.71573 1 16C1 24.2843 7.71573 31 16 31Z" fill="#CFCFD8"/>
<path d="M21.0843 15.9169L19.6636 17.2056L20.9464 18.6309L22.3671 17.3423L21.0843 15.9169Z" fill="#11223E"/>
<path d="M18.2535 17.0762L16.3589 18.7883L18.0652 20.6913L19.9598 18.9791L18.2535 17.0762Z" fill="#11223E"/>
<path d="M23.6468 15.4637L22.7004 16.3201L23.5534 17.2701L24.4997 16.4138L23.6468 15.4637Z" fill="#11223E"/>
<path d="M18.5586 10.0379L17.1365 11.323L18.4166 12.7507L19.8387 11.4655L18.5586 10.0379Z" fill="#11223E"/>
<path d="M22.4356 12.6241L21.4912 13.4807L22.3453 14.4297L23.2897 13.5731L22.4356 12.6241Z" fill="#11223E"/>
<path d="M16.9089 13.7794L15.0125 15.4932L16.7187 17.3961L18.6151 15.6823L16.9089 13.7794Z" fill="#11223E"/>
<path d="M15.5537 10.5358L13.6582 12.2488L15.3645 14.1517L17.26 12.4388L15.5537 10.5358Z" fill="#11223E"/>
<path d="M19.8644 12.908L18.4458 14.1934L19.7287 15.6202L21.1472 14.3348L19.8644 12.908Z" fill="#11223E"/>
<path d="M21.2193 9.8019L20.2729 10.6582L21.1259 11.6083L22.0723 10.752L21.2193 9.8019Z" fill="#11223E"/>
<path d="M22.3366 18.8013L20.915 20.0872L22.1967 21.5151L23.6183 20.2293L22.3366 18.8013Z" fill="#11223E"/>
<path d="M19.8425 20.4187L17.9897 22.1338L14.8616 18.6391L15.7316 17.8704L13.5415 15.4086L14.4163 14.6388L12.1935 12.1794L15.6625 9.04393L16.7642 10.2547L18.6243 8.58835L19.7236 9.73216L20.4564 9.07316C20.2926 8.97815 20.1288 8.89044 19.9626 8.81127C18.9058 8.29235 17.7191 8 16.4693 8C12.0806 8 8.5 11.5935 8.5 16.0006C8.5 20.4065 12.0806 24 16.4693 24C17.895 24 19.2382 23.6212 20.397 22.9573C20.7792 22.7405 21.1274 22.5054 21.4453 22.2581L19.8425 20.4187Z" fill="#11223E"/>
<path d="M22 2.24813C20.1626 1.44534 18.1333 1 16 1C7.71573 1 1 7.71573 1 16C1 24.2843 7.71573 31 16 31C24.2843 31 31 24.2843 31 16C31 13.1721 30.2175 10.527 28.8571 8.26946" stroke="#11223E"/>
</svg>
