<svg width="32" height="32" viewBox="0 0 32 32" fill="none" xmlns="http://www.w3.org/2000/svg">
<path d="M16 31C24.2843 31 31 24.2843 31 16C31 7.71573 24.2843 1 16 1C7.71573 1 1 7.71573 1 16C1 24.2843 7.71573 31 16 31Z" fill="#FF8C00" fill-opacity="0.35"/>
<g clip-path="url(#clip0)">
<path d="M19.9255 10.9207C20.0525 10.6881 20.1248 10.4215 20.1248 10.1383C20.1248 9.23495 19.3898 8.5 18.4865 8.5C17.8183 8.5 17.1346 8.84525 16.6108 9.44723C16.4812 9.59619 16.3657 9.75629 16.2659 9.92301C16.166 9.75629 16.0506 9.59619 15.9209 9.44723C15.3971 8.84525 14.7135 8.5 14.0453 8.5C13.1419 8.5 12.4069 9.23497 12.4069 10.1383C12.4069 10.4215 12.4792 10.6881 12.6062 10.9207H10.375V14.8305H15.8379V10.9207H16.6938V14.8305H22.1567V10.9207H19.9255ZM14.0453 10.9207C13.6139 10.9207 13.2629 10.5697 13.2629 10.1383C13.2629 9.70694 13.6139 9.35597 14.0453 9.35597C14.822 9.35597 15.5605 10.1505 15.7753 10.9207H14.0453V10.9207ZM18.4865 10.9207H16.7564C16.9713 10.1505 17.7097 9.356 18.4865 9.356C18.9178 9.356 19.2688 9.70698 19.2688 10.1384C19.2688 10.5698 18.9178 10.9207 18.4865 10.9207Z" fill="#FF8C00"/>
</g>
<g clip-path="url(#clip1)">
<path d="M15.8378 15.6855H11.1436V21.624H15.8378V15.6855Z" fill="#FF8C00"/>
</g>
<g clip-path="url(#clip2)">
<path d="M21.3886 15.6855H16.6944V21.624H21.3886V15.6855Z" fill="#FF8C00"/>
</g>
<path d="M22 2.24813C20.1626 1.44534 18.1333 1 16 1C7.71573 1 1 7.71573 1 16C1 24.2843 7.71573 31 16 31C24.2843 31 31 24.2843 31 16C31 13.1721 30.2175 10.527 28.8571 8.26946" stroke="#FF8C00"/>
<defs>
<clipPath id="clip0">
<rect x="10.375" y="8.5" width="12.1875" height="6.5625" fill="white"/>
</clipPath>
<clipPath id="clip1">
<rect x="10.375" y="15.0625" width="5.625" height="6.5625" fill="white"/>
</clipPath>
<clipPath id="clip2">
<rect x="16" y="15.0625" width="5.625" height="6.5625" fill="white"/>
</clipPath>
</defs>
</svg>
