<svg width="32" height="32" viewBox="0 0 32 32" fill="none" xmlns="http://www.w3.org/2000/svg">
<mask id="mask0" mask-type="alpha" maskUnits="userSpaceOnUse" x="1" y="1" width="30" height="30">
<path d="M16 31C24.2843 31 31 24.2843 31 16C31 7.71573 24.2843 1 16 1C7.71573 1 1 7.71573 1 16C1 24.2843 7.71573 31 16 31Z" fill="#CFCFD8"/>
</mask>
<g mask="url(#mask0)">
<path opacity="0.35" d="M16 31C24.2843 31 31 24.2843 31 16C31 7.71573 24.2843 1 16 1C7.71573 1 1 7.71573 1 16C1 24.2843 7.71573 31 16 31Z" fill="#327CCB"/>
<path d="M15.5893 9C11.3978 9 8 12.3579 8 16.5C8 20.6421 11.3978 24 15.5893 24C19.7807 24 23.1786 20.6421 23.1786 16.5C23.1786 15.8526 23.0956 15.2243 22.9395 14.625M22.9395 14.625L19.6369 17M22.9395 14.625L26.2143 16.5M18.7515 9.68005C19.7061 10.113 20.5542 10.736 21.2461 11.5L18.7515 9.68005Z" stroke="#327CCB"/>
</g>
<path d="M22 2.24813C20.1626 1.44534 18.1333 1 16 1C7.71573 1 1 7.71573 1 16C1 24.2843 7.71573 31 16 31C24.2843 31 31 24.2843 31 16C31 13.1721 30.2175 10.527 28.8571 8.26946" stroke="#327CCB"/>
</svg>
