<svg width="43" height="36" viewBox="0 0 43 36" fill="none" xmlns="http://www.w3.org/2000/svg">
<path d="M0 0.999999C0 0.447714 0.447715 0 1 0H22.2864C22.8387 0 23.2864 0.447715 23.2864 1V5.5V34.8253C23.2864 35.3776 22.8387 35.8253 22.2864 35.8253H1C0.447716 35.8253 0 35.3776 0 34.8253V0.999999Z" fill="white" fill-opacity="0.25"/>
<path d="M1 0.5H22.2864C22.5626 0.5 22.7864 0.723858 22.7864 1V24V34.8253C22.7864 35.1014 22.5626 35.3253 22.2864 35.3253H1C0.723858 35.3253 0.5 35.1014 0.5 34.8253V0.999999C0.5 0.723857 0.723857 0.5 1 0.5Z" stroke="white"/>
<path d="M27.0653 25.0613L27.0799 25.0786L27.0961 25.0945C27.6461 25.6352 28.5284 25.6352 29.0784 25.0945C29.6257 24.5565 29.6331 23.6911 29.1007 23.1442L26.0675 19.3918L41.089 19.3918C41.8607 19.3918 42.5 18.7756 42.5 17.9964C42.5 17.2171 41.8607 16.6009 41.089 16.6009L26.0749 16.6009L29.1067 12.8502C29.6412 12.3097 29.6336 11.4347 29.0839 10.9037C28.8088 10.6342 28.4524 10.5 28.091 10.5C27.7287 10.5 27.3714 10.6349 27.0961 10.9055L27.0845 10.9169L27.0736 10.9291L23.127 15.3499L23 15.4921L23 15.6828L23 20.0838L23 20.2673L23.1187 20.4072L27.0653 25.0613Z" fill="white" fill-opacity="0.25" stroke="white"/>
</svg>
