<svg class="menu-icons" width="17" height="15" viewBox="0 0 17 15" fill="none" xmlns="http://www.w3.org/2000/svg">
<rect x="0.5" width="9.63644" height="14.8253" rx="1" fill="#AAAAB8"/>
<path d="M13.2397 10.2978C13.3365 10.3946 13.4624 10.4433 13.5911 10.4433C13.7199 10.4433 13.8458 10.3946 13.9426 10.2978L16.4795 7.76093C16.6734 7.56698 16.6734 7.25501 16.4795 7.06105L13.9426 4.52415C13.7486 4.3302 13.4367 4.3302 13.2427 4.52415C13.0488 4.71811 13.0488 5.03008 13.2427 5.22403L14.9343 6.91559H8.28451C8.00987 6.91559 7.7876 7.13785 7.7876 7.4125C7.7876 7.68715 8.00987 7.90942 8.28451 7.90942H14.9312L13.2406 9.60005C13.2405 9.60022 13.2403 9.60039 13.2401 9.60055C13.0454 9.79174 13.0456 10.1078 13.2406 10.2988L13.3281 10.2094L13.2397 10.2978Z" fill="#AAAAB8" stroke="#AAAAB8" stroke-width="0.25"/>
</svg>
