<svg width="12" height="13" viewBox="0 0 12 13" fill="none" xmlns="http://www.w3.org/2000/svg">
<path d="M5.95787 6.50007C6.85524 6.50007 7.62117 6.18258 8.25586 5.54786C8.8906 4.91314 9.20804 4.14721 9.20804 3.24996C9.20804 2.35286 8.8906 1.5869 8.25586 0.952035C7.62096 0.317345 6.855 0 5.95787 0C5.06074 0 4.29467 0.317345 3.65998 0.952035C3.02517 1.5869 2.70776 2.35283 2.70776 3.24996C2.70776 4.14721 3.02517 4.91314 3.65998 5.54786C4.29484 6.18258 5.06071 6.50007 5.95787 6.50007Z" fill="#AAAAB8"/>
<path d="M11.8872 9.93228C11.8674 9.64742 11.8278 9.33983 11.7687 9.00971C11.7094 8.67959 11.6346 8.37363 11.5443 8.09138C11.454 7.80934 11.3326 7.53424 11.1803 7.26619C11.028 6.99818 10.8531 6.76971 10.6555 6.58061C10.4579 6.39156 10.2167 6.24073 9.932 6.1279C9.6469 6.01511 9.33232 5.9586 8.98811 5.9586C8.93739 5.9586 8.81887 6.01926 8.63264 6.14059C8.4466 6.26193 8.23639 6.39737 8.00222 6.54696C7.76809 6.69628 7.46323 6.83181 7.08816 6.95294C6.71292 7.07428 6.33635 7.13496 5.95817 7.13496C5.58014 7.13496 5.20354 7.07428 4.82836 6.95294C4.45321 6.83181 4.14843 6.69628 3.91427 6.54696C3.68014 6.39737 3.46999 6.26196 3.28382 6.14059C3.09756 6.01926 2.97913 5.9586 2.92835 5.9586C2.58418 5.9586 2.26959 6.01511 1.98467 6.1279C1.6997 6.24073 1.45851 6.39168 1.26099 6.58061C1.06353 6.76971 0.888596 6.99818 0.736312 7.26619C0.584028 7.53424 0.462722 7.80946 0.372425 8.09138C0.282157 8.37363 0.207364 8.67959 0.148134 9.00971C0.0888447 9.33983 0.0493582 9.64722 0.0295853 9.93228C0.00984203 10.2173 0 10.5093 0 10.8084C0 11.4854 0.206 12.0201 0.617852 12.4123C1.02979 12.8043 1.57715 13.0003 2.25986 13.0003H9.65716C10.3398 13.0003 10.8871 12.8043 11.2991 12.4123C11.7112 12.0201 11.9171 11.4854 11.9171 10.8084C11.917 10.5093 11.9072 10.2173 11.8872 9.93228Z" fill="#AAAAB8"/>
</svg>
