<svg class="menu-icons" width="17" height="15" viewBox="0 0 17 15" fill="none" xmlns="http://www.w3.org/2000/svg">
<path class="history-icon" d="M7.49992 0C3.35786 0 0 3.35796 0 7.49988C0 11.6418 3.35786 15.0001 7.49988 15.0001C11.6419 15.0001 15 11.6419 15 7.49988C15 3.35781 11.6419 0 7.49992 0ZM8.01783 8.41699C8.01743 8.43669 8.01448 8.45639 8.01173 8.47614C8.00978 8.49094 8.00888 8.50609 8.00553 8.52064C8.00218 8.53579 7.99643 8.55074 7.99153 8.56589C7.98568 8.58419 7.98023 8.60244 7.97258 8.61969C7.97113 8.62269 7.97063 8.62589 7.96933 8.62889C7.95803 8.65299 7.94493 8.67559 7.93058 8.69699C7.92968 8.6983 7.92848 8.6996 7.92758 8.7009C7.91123 8.7249 7.89258 8.7467 7.87298 8.76715C7.86753 8.77275 7.86198 8.7778 7.85623 8.7831C7.83898 8.79955 7.82083 8.8146 7.80153 8.82835C7.79558 8.83265 7.78988 8.83715 7.78363 8.8413C7.75888 8.8575 7.73293 8.87175 7.70593 8.88345C7.70008 8.88605 7.69398 8.8876 7.68803 8.88995C7.66523 8.89875 7.64213 8.90605 7.61828 8.9116C7.60973 8.91365 7.60128 8.9155 7.59258 8.91705C7.56198 8.92265 7.53098 8.9265 7.49958 8.9265C7.49323 8.9265 7.48672 8.92455 7.48037 8.9243C7.45027 8.92315 7.42047 8.9208 7.39182 8.9147C7.38287 8.91275 7.37407 8.90885 7.36512 8.9064C7.33842 8.89915 7.31232 8.8911 7.28742 8.87995C7.28457 8.8785 7.28157 8.87825 7.27872 8.87695L4.40292 7.52048C4.14382 7.39832 4.03282 7.08917 4.15497 6.83006C4.27712 6.57111 4.58628 6.45996 4.84538 6.58211L6.98122 7.58933V3.1125C6.98122 2.82605 7.21347 2.59379 7.49992 2.59379C7.78638 2.59379 8.01863 2.82605 8.01863 3.1125V8.40764H8.01873C8.01873 8.41074 8.01783 8.41384 8.01783 8.41699Z" fill="#327CCB"/>
</svg>
