<svg class="menu-icons" width="17" height="20" viewBox="0 0 17 20" fill="none" xmlns="http://www.w3.org/2000/svg">
<path fill-rule="evenodd" clip-rule="evenodd" d="M9.0105 4.19712C10.4779 2.96443 11.4584 0.18736 10.855 0.0658973C10.0532 -0.0955533 8.31218 0.612387 7.47066 0.737118C6.2771 0.88123 4.97714 -0.557165 4.24746 0.244596C3.65417 0.896481 4.6728 3.26718 6.26647 4.29997C5.44486 4.70378 4.56566 5.38811 3.73348 6.24835C3.37015 6.62392 3.01578 7.03303 2.67908 7.46696C2.37673 7.85662 2.08863 8.2663 1.82107 8.68969C-0.880268 12.9644 -1.48702 18.6369 6.48766 19.2191C22.6196 20.3969 14.5418 6.47431 9.0105 4.19712ZM9.74163 14.6005C10.1039 14.3198 10.3463 13.9062 10.3959 13.4488C10.4332 13.1058 10.3774 12.7448 10.2072 12.4422C10.2063 12.4406 10.2054 12.439 10.2045 12.4375L10.2072 12.4422C10.2394 12.4986 10.2675 12.5479 10.2032 12.4349C10.1358 12.3166 10.1684 12.374 10.202 12.4329C9.98551 12.0547 9.60964 11.8149 9.21298 11.6585C8.95054 11.555 8.67639 11.4835 8.40246 11.4179V9.62126C8.63295 9.66216 8.86362 9.73532 9.0538 9.87576C9.14163 9.94053 9.21857 10.0191 9.27794 10.1108C9.30848 10.158 9.33499 10.2079 9.35546 10.2603C9.37575 10.312 9.38569 10.3668 9.40557 10.4187C9.47234 10.593 9.64128 10.7144 9.82774 10.7225C10.0175 10.7306 10.1979 10.6211 10.2783 10.4492C10.3176 10.3653 10.3316 10.2705 10.3179 10.1788C10.3093 10.1213 10.2912 10.0646 10.2732 10.0096C10.2539 9.95051 10.2317 9.8926 10.2062 9.836C10.115 9.63311 9.98533 9.44705 9.82692 9.29091C9.49254 8.96125 9.04531 8.77243 8.58806 8.68969C8.52651 8.67852 8.46465 8.66917 8.4026 8.66136V8.62292V8.13965C8.4026 7.95619 8.29303 7.78525 8.12636 7.7085C7.95746 7.6307 7.75312 7.66111 7.61395 7.78416C7.51274 7.87367 7.45368 8.00448 7.45368 8.13965V8.62292V8.66422C6.98803 8.73013 6.52379 8.90955 6.17429 9.23123C6.01084 9.38169 5.87753 9.56321 5.78494 9.76537C5.68608 9.98129 5.64105 10.2162 5.64282 10.4532C5.64455 10.6866 5.68699 10.9215 5.78943 11.1325C5.88652 11.3323 6.03476 11.5012 6.20947 11.6371C6.56895 11.9166 7.01831 12.0621 7.45364 12.1748V14.0522C7.231 13.9898 7.01744 13.8848 6.84978 13.7232C6.76844 13.6449 6.69781 13.5545 6.64144 13.4566C6.61289 13.4068 6.5886 13.3546 6.5685 13.3009C6.54821 13.2467 6.53595 13.1907 6.51789 13.136C6.45924 12.9584 6.29598 12.8292 6.1097 12.8126C5.92042 12.7958 5.73505 12.8974 5.64709 13.0656C5.60429 13.1474 5.58608 13.2411 5.59548 13.3329C5.60094 13.3865 5.61653 13.4388 5.63187 13.4902L5.63288 13.4936C5.65018 13.5516 5.66992 13.609 5.69207 13.6653C5.77686 13.8808 5.89945 14.0805 6.04983 14.2565C6.35172 14.6095 6.76499 14.8481 7.21053 14.9706C7.29074 14.9926 7.37189 15.011 7.45364 15.0266V15.5789C7.45364 15.7623 7.56316 15.9333 7.72988 16.01C7.89873 16.0878 8.10316 16.0575 8.24228 15.9344C8.3435 15.8448 8.40255 15.7141 8.40255 15.5789V15.0735C8.87928 15.0349 9.35909 14.897 9.74163 14.6005Z" fill="#AAAAB8"/>
<path d="M9.31196 12.7862C9.23993 12.7073 9.14879 12.6483 9.05461 12.5991C8.84954 12.4922 8.62527 12.4273 8.40259 12.3688V14.0943C8.76402 14.0534 9.17897 13.9223 9.36875 13.5848C9.45934 13.4236 9.47736 13.2256 9.44046 13.0462C9.42044 12.949 9.3791 12.8597 9.31196 12.7862Z" fill="#AAAAB8"/>
<path d="M6.70713 10.0278C6.645 10.1186 6.60601 10.2217 6.59525 10.3312C6.58449 10.441 6.59053 10.5632 6.63224 10.6665C6.67196 10.765 6.75516 10.8377 6.84103 10.8963C6.9374 10.9618 7.04338 11.013 7.15132 11.0564C7.24187 11.0929 7.34372 11.1277 7.45352 11.1614V9.6C7.17615 9.65919 6.87308 9.78555 6.70713 10.0278Z" fill="#AAAAB8"/>
</svg>
