<svg class="menu-icons" width="17" height="17" viewBox="0 0 17 17" fill="none" xmlns="http://www.w3.org/2000/svg">
<path fill-rule="evenodd" clip-rule="evenodd" d="M16.9467 7.55631C16.9198 7.31734 16.6412 7.13776 16.4002 7.13776C15.6213 7.13776 14.93 6.68037 14.6401 5.97301C14.344 5.24851 14.535 4.40357 15.1155 3.87104C15.2982 3.70398 15.3204 3.42434 15.1672 3.23009C14.7685 2.72381 14.3153 2.26648 13.8206 1.87014C13.6268 1.71466 13.3426 1.73629 13.1746 1.92232C12.6679 2.48344 11.7578 2.69199 11.0546 2.39856C10.3227 2.0907 9.86122 1.34912 9.90638 0.553076C9.92125 0.303035 9.73851 0.0856327 9.48923 0.0565994C8.85429 -0.0168378 8.21379 -0.019115 7.57695 0.0515391C7.33051 0.0787381 7.14778 0.291017 7.15606 0.537895C7.18377 1.3261 6.7167 2.05471 5.99214 2.3515C5.2973 2.63532 4.3936 2.42854 3.88795 1.87242C3.72083 1.68923 3.44119 1.66672 3.24649 1.81846C2.73705 2.21816 2.27372 2.67586 1.87137 3.17797C1.71443 3.37317 1.73752 3.6561 1.92209 3.82404C2.5137 4.3598 2.70473 5.21207 2.39738 5.94493C2.10395 6.64362 1.37843 7.09392 0.547851 7.09392C0.278328 7.08526 0.0863542 7.26616 0.0568781 7.51121C-0.0178875 8.14981 -0.018773 8.8005 0.0532094 9.4443C0.0799023 9.68428 0.36701 9.86228 0.610599 9.86228C1.35079 9.84336 2.06144 10.3016 2.35956 11.0271C2.65672 11.7516 2.46569 12.596 1.88427 13.129C1.70242 13.2961 1.67933 13.5753 1.83259 13.7695C2.22755 14.2726 2.68076 14.7303 3.1773 15.13C3.37205 15.2869 3.65543 15.2648 3.82425 15.0787C4.33281 14.5162 5.24284 14.308 5.9433 14.602C6.67698 14.909 7.13848 15.6505 7.09331 16.447C7.07858 16.6971 7.2622 16.9149 7.51047 16.9435C7.83528 16.9814 8.16204 17.0003 8.4897 17.0003C8.80071 17.0003 9.11179 16.9832 9.42281 16.9486C9.66931 16.9214 9.85192 16.7091 9.84364 16.4618C9.81511 15.6741 10.283 14.9454 11.0066 14.6492C11.7061 14.3635 12.606 14.5726 13.1118 15.1281C13.2798 15.3109 13.5575 15.333 13.7533 15.1818C14.2618 14.783 14.7241 14.3257 15.1284 13.8222C15.2853 13.6274 15.2631 13.3441 15.0776 13.1762C14.486 12.6404 14.294 11.788 14.6014 11.0557C14.8903 10.3663 15.5889 9.90339 16.3403 9.90339L16.4454 9.90611C16.6891 9.92591 16.9133 9.73817 16.9429 9.4894C17.0178 8.85022 17.0187 8.2001 16.9467 7.55631ZM8.51342 11.3534C6.94992 11.3534 5.67815 10.0816 5.67815 8.51814C5.67815 6.9547 6.94992 5.68287 8.51342 5.68287C10.0769 5.68287 11.3486 6.9547 11.3486 8.51814C11.3486 10.0816 10.0769 11.3534 8.51342 11.3534Z" fill="#AAAAB8"/>
</svg>
