<svg width="38" height="32" viewBox="0 0 38 32" fill="none" xmlns="http://www.w3.org/2000/svg">
<path d="M24.1739 19.4783C24.1739 25.6015 19.2101 30.5653 13.087 30.5653H2.38231L5.44075 27.5068C3.32102 25.4874 2 22.6371 2 19.4783C2 13.3552 6.9638 8.39136 13.087 8.39136C19.2101 8.39136 24.1739 13.3552 24.1739 19.4783Z" fill="white" fill-opacity="0.25"/>
<path d="M21.5401 26.7155C19.5478 29.073 16.5993 30.5653 13.3092 30.5653H2L5.40768 27.0879C3.57071 25.1023 2.44459 22.4245 2.44459 19.4783C2.44459 13.3552 7.30886 8.39136 13.3092 8.39136C19.3096 8.39136 24.1739 13.3552 24.1739 19.4783C24.1739 20.8168 23.9415 22.1 23.5155 23.288" stroke="white"/>
<path d="M13.8261 12.087C13.8261 18.2101 18.7899 23.1739 24.913 23.1739H35.6177L32.5593 20.1154C34.679 18.096 36 15.2458 36 12.087C36 5.9638 31.0362 1 24.913 1C18.7899 1 13.8261 5.9638 13.8261 12.087Z" fill="white" fill-opacity="0.25"/>
<path d="M16.4599 19.3241C18.4522 21.6816 21.4007 23.1739 24.6908 23.1739H36L32.5923 19.6965C34.4293 17.7109 35.5554 15.0331 35.5554 12.087C35.5554 5.9638 30.6911 1 24.6908 1C18.6904 1 13.8261 5.9638 13.8261 12.087C13.8261 13.4255 14.0585 14.7086 14.4845 15.8966" stroke="white"/>
</svg>
