<svg width="33" height="32" viewBox="0 0 33 32" fill="none" xmlns="http://www.w3.org/2000/svg">
<path d="M32 16C32 24.2843 25.2843 31 17 31H2.51724L6.65513 26.8621C3.78727 24.1299 2 20.2737 2 16C2 7.71573 8.71573 1 17 1C25.2843 1 32 7.71573 32 16Z" fill="#CFCFD8"/>
<path d="M17.3007 11.4545V16M17.3007 16V20.5455M17.3007 16H21.7551M17.3007 16H12.8464M28.4366 25.7915C25.7411 28.981 21.752 31 17.3007 31H2L6.61039 26.2953C4.12508 23.6089 2.6015 19.986 2.6015 16C2.6015 7.71573 9.18258 1 17.3007 1C25.4189 1 32 7.71573 32 16C32 17.811 31.6855 19.5469 31.1092 21.1542" stroke="#11223E"/>
</svg>
