<svg width="47" height="50" viewBox="0 0 47 50" fill="none" xmlns="http://www.w3.org/2000/svg">
    <path d="M33.7938 15.4069L34.0995 14.2661C34.7347 11.738 33.2373 9.14431 30.7197 8.46972C28.2021 7.79513 25.6084 9.29258 24.8839 11.839L24.5888 12.9404C20.0915 13.6748 16.4201 16.9916 15.2396 21.3974L13.1909 27.3735C11.3061 28.4285 9.41102 29.6175 8.84183 31.7418L8.58886 32.6859C8.39913 33.394 8.84163 34.1028 9.51037 34.282L17.2992 36.369C17.1851 39.6271 19.7082 42.3269 22.9557 42.4803C25.2064 42.5774 27.3512 41.3391 28.3924 39.3414L35.76 41.207C36.468 41.3967 37.1769 40.9542 37.3561 40.2855L37.609 39.3414C38.2176 37.2277 37.2861 35.2296 36.1812 33.3735L37.6093 27.6022C38.8004 23.157 37.2897 18.4096 33.7938 15.4069Z" fill="#CFCFD8"/>
    <path d="M15.2396 21.3974L13.1909 27.3735C11.3061 28.4285 9.41102 29.6176 8.84183 31.7418L8.58886 32.6859C8.39913 33.394 8.84163 34.1028 9.51037 34.282L17.2992 36.369C17.1851 39.6271 19.7082 42.3269 22.9557 42.4803C25.2064 42.5774 27.3512 41.3392 28.3924 39.3414L35.76 41.207C36.468 41.3967 37.1769 40.9542 37.3561 40.2855L37.609 39.3414C38.2176 37.2277 37.2861 35.2296 36.1812 33.3735L37.6093 27.6022C38.8004 23.157 37.2897 18.4096 33.7938 15.4069L34.0995 14.2661C34.7347 11.738 33.2373 9.14431 30.7197 8.46972C28.2021 7.79513 25.6084 9.29258 24.8839 11.839L24.5888 12.9404C22.1134 13.3447 19.8882 14.5312 18.1909 16.2511" stroke="#11223E"/>
</svg>
