<svg width="45" height="38" viewBox="0 0 45 38" fill="none" xmlns="http://www.w3.org/2000/svg">
    <path d="M28.7391 23.4565C28.7391 30.8403 22.7534 36.826 15.3696 36.826H2.46102L6.14914 33.1379C3.593 30.7027 2 27.2656 2 23.4565C2 16.0727 7.98576 10.0869 15.3696 10.0869C22.7534 10.0869 28.7391 16.0727 28.7391 23.4565Z" fill="white"/>
    <path d="M25.5631 32.1837C23.1605 35.0265 19.605 36.826 15.6376 36.826H2L6.10926 32.6327C3.89409 30.2383 2.53612 27.0092 2.53612 23.4565C2.53612 16.0727 8.40186 10.0869 15.6376 10.0869C22.8734 10.0869 28.7391 16.0727 28.7391 23.4565C28.7391 25.0706 28.4588 26.6179 27.9452 28.0505" stroke="#11223E"/>
    <path d="M16.2609 14.5434C16.2609 21.9272 22.2466 27.913 29.6304 27.913H42.539L38.8509 24.2248C41.407 21.7896 43 18.3525 43 14.5434C43 7.15959 37.0142 1.17383 29.6304 1.17383C22.2466 1.17383 16.2609 7.15959 16.2609 14.5434Z" fill="#CFCFD8"/>
    <path d="M19.4369 23.2706C21.8395 26.1134 25.395 27.913 29.3624 27.913H43L38.8907 23.7196C41.1059 21.3252 42.4639 18.0961 42.4639 14.5434C42.4639 7.15959 36.5981 1.17383 29.3624 1.17383C22.1266 1.17383 16.2609 7.15959 16.2609 14.5434C16.2609 16.1575 16.5412 17.7048 17.0548 19.1374" stroke="#11223E"/>
</svg>
