<svg width="37" height="44" viewBox="0 0 37 44" fill="none" xmlns="http://www.w3.org/2000/svg">
    <path d="M21.4766 30.7639C21.478 30.7616 21.4787 30.7601 21.4802 30.7576C21.479 30.7597 21.4778 30.7617 21.4766 30.7639Z" fill="white"/>
    <path d="M21.4965 30.7296C21.4916 30.7384 21.4862 30.7477 21.481 30.7574C21.4871 30.7461 21.492 30.7377 21.4965 30.7296Z" fill="white"/>
    <path d="M21.5161 30.695C21.5179 30.6917 21.5182 30.6914 21.5161 30.695V30.695Z" fill="white"/>
    <path d="M21.4657 30.7841C21.4596 30.7949 21.4544 30.8044 21.4502 30.8116C21.4538 30.8054 21.4591 30.796 21.4657 30.7841Z" fill="white"/>
    <path fill-rule="evenodd" clip-rule="evenodd" d="M20.6974 10.1751C23.9052 7.48038 26.0486 1.40958 24.7295 1.14405C22.9768 0.791116 19.1708 2.33871 17.3312 2.61137C14.722 2.92641 11.8803 -0.217989 10.2851 1.5347C8.98819 2.95975 11.215 8.1422 14.6988 10.3999C12.9027 11.2827 10.9808 12.7787 9.16157 14.6592C8.36731 15.4802 7.59265 16.3745 6.8566 17.3231C6.19565 18.1749 5.56584 19.0705 4.98095 19.9961C-0.924308 29.3407 -2.2507 41.7411 15.1823 43.0139C50.4475 45.5886 32.789 15.1532 20.6974 10.1751ZM22.2957 32.9175C23.0877 32.3037 23.6175 31.3995 23.726 30.3998C23.8074 29.6499 23.6854 28.8608 23.3135 28.1993C23.3115 28.1958 23.3095 28.1923 23.3076 28.1889L23.3135 28.1993C23.3838 28.3225 23.4453 28.4303 23.3046 28.1832C23.1572 27.9246 23.2287 28.0501 23.3021 28.1789C22.8288 27.3522 22.0071 26.8279 21.14 26.486C20.5663 26.2598 19.967 26.1034 19.3682 25.96V22.0325C19.872 22.1219 20.3763 22.2819 20.792 22.5889C20.984 22.7305 21.1522 22.9023 21.282 23.1028C21.3488 23.2058 21.4067 23.315 21.4515 23.4294C21.4958 23.5424 21.5176 23.6624 21.561 23.7757C21.707 24.1567 22.0763 24.4221 22.4839 24.4399C22.8988 24.4577 23.2931 24.2183 23.4689 23.8425C23.5547 23.659 23.5853 23.4518 23.5553 23.2513C23.5366 23.1257 23.4971 23.0017 23.4578 22.8814C23.4156 22.7523 23.3669 22.6257 23.3112 22.502C23.1119 22.0584 22.8284 21.6517 22.4821 21.3104C21.7511 20.5897 20.7735 20.1769 19.7739 19.9961C19.6394 19.9717 19.5041 19.9512 19.3685 19.9341V19.8501V18.7937C19.3685 18.3926 19.1289 18.0189 18.7646 17.8511C18.3954 17.6811 17.9487 17.7476 17.6445 18.0165C17.4232 18.2122 17.2941 18.4982 17.2941 18.7937V19.8501V19.9404C16.2762 20.0845 15.2613 20.4767 14.4973 21.1799C14.14 21.5088 13.8486 21.9056 13.6461 22.3476C13.43 22.8196 13.3316 23.3331 13.3355 23.8511C13.3392 24.3613 13.432 24.875 13.656 25.3361C13.8682 25.773 14.1923 26.1421 14.5742 26.4392C15.36 27.0502 16.3424 27.3684 17.294 27.6148V31.7188C16.8073 31.5823 16.3405 31.3528 15.9739 30.9997C15.7961 30.8283 15.6417 30.6309 15.5185 30.4167C15.4561 30.308 15.403 30.1938 15.359 30.0763C15.3147 29.958 15.2879 29.8355 15.2484 29.7159C15.1202 29.3278 14.7633 29.0452 14.3561 29.009C13.9423 28.9721 13.5371 29.1943 13.3448 29.5621C13.2512 29.7409 13.2114 29.9457 13.232 30.1464C13.2439 30.2635 13.278 30.3778 13.3115 30.4902L13.3137 30.4976C13.3515 30.6244 13.3947 30.7498 13.4431 30.873C13.6285 31.3442 13.8965 31.7807 14.2252 32.1654C14.8852 32.9371 15.7886 33.4587 16.7626 33.7263C16.9379 33.7745 17.1153 33.8148 17.294 33.8488V35.0561C17.294 35.4572 17.5334 35.831 17.8979 35.9987C18.267 36.1687 18.7139 36.1023 19.018 35.8333C19.2393 35.6376 19.3684 35.3517 19.3684 35.0561V33.9515C20.4105 33.867 21.4594 33.5656 22.2957 32.9175Z" fill="#11223E" fill-opacity="0.25"/>
    <path d="M4.98095 19.9961C-0.924308 29.3407 -2.2507 41.7411 15.1823 43.0139C50.4475 45.5886 32.789 15.1532 20.6974 10.1751C23.9052 7.48038 26.0486 1.40958 24.7295 1.14405C22.9768 0.791116 19.1708 2.33871 17.3312 2.61137C14.722 2.92641 11.8803 -0.217989 10.2851 1.5347C8.98818 2.95975 11.215 8.1422 14.6988 10.3999C12.9027 11.2827 10.9808 12.7787 9.16157 14.6592" stroke="#11223E"/>
    <path fill-rule="evenodd" clip-rule="evenodd" d="M22.296 32.9176C23.088 32.3038 23.6179 31.3997 23.7263 30.3999C23.8082 29.6461 23.6845 28.8526 23.3079 28.189L23.3125 28.197C23.3833 28.3212 23.4466 28.432 23.3049 28.1834C23.1576 27.9248 23.229 28.0503 23.3024 28.1791C22.8291 27.3524 22.0075 26.8281 21.1404 26.4861C20.5666 26.2599 19.9673 26.1035 19.3685 25.9601V22.0327C19.8724 22.1221 20.3766 22.282 20.7924 22.589C20.9844 22.7306 21.1526 22.9025 21.2823 23.1029C21.3491 23.206 21.4071 23.3151 21.4518 23.4295C21.4744 23.4872 21.4912 23.5467 21.5079 23.6061C21.524 23.6632 21.5401 23.7203 21.5614 23.7758C21.7073 24.1569 22.0766 24.4223 22.4842 24.44C22.8991 24.4578 23.2934 24.2185 23.4692 23.8426C23.5551 23.6591 23.5856 23.452 23.5557 23.2514C23.5369 23.1258 23.4974 23.0019 23.4581 22.8815C23.416 22.7524 23.3672 22.6258 23.3116 22.5021C23.1122 22.0586 22.8287 21.6518 22.4825 21.3105C21.7515 20.5899 20.7738 20.1771 19.7742 19.9962C19.6397 19.9718 19.5045 19.9514 19.3688 19.9343V19.8502V18.7938C19.3688 18.3927 19.1293 18.0191 18.7649 17.8513C18.3957 17.6812 17.949 17.7477 17.6448 18.0167C17.4235 18.2124 17.2944 18.4983 17.2944 18.7938V19.8502V19.9405C16.2765 20.0846 15.2617 20.4768 14.4976 21.18C14.1403 21.509 13.8489 21.9058 13.6465 22.3477C13.4304 22.8197 13.3319 23.3332 13.3358 23.8512C13.3396 24.3615 13.4324 24.8751 13.6563 25.3362C13.8686 25.7731 14.1926 26.1422 14.5745 26.4393C15.3604 27.0503 16.3427 27.3685 17.2943 27.6149V31.719C16.8077 31.5825 16.3408 31.353 15.9743 30.9998C15.7965 30.8285 15.6421 30.631 15.5188 30.4169C15.4564 30.3081 15.4033 30.1939 15.3594 30.0764C15.3336 30.0077 15.3138 29.9376 15.2939 29.8674L15.2939 29.8674C15.2796 29.8168 15.2653 29.7662 15.2488 29.7161C15.1206 29.3279 14.7636 29.0453 14.3564 29.0092C13.9427 28.9723 13.5374 29.1944 13.3451 29.5623C13.2516 29.7411 13.2118 29.9459 13.2323 30.1466C13.2443 30.2637 13.2783 30.3779 13.3119 30.4903L13.3141 30.4977C13.3519 30.6245 13.3951 30.75 13.4435 30.8731C13.6288 31.3443 13.8968 31.7808 14.2256 32.1655C14.8855 32.9373 15.7889 33.4589 16.7629 33.7265C16.9382 33.7746 17.1156 33.815 17.2943 33.8489V35.0563C17.2943 35.4573 17.5338 35.8311 17.8982 35.9988C18.2673 36.1689 18.7142 36.1025 19.0184 35.8334C19.2396 35.6377 19.3687 35.3519 19.3687 35.0563V33.9516C20.4109 33.8672 21.4598 33.5657 22.296 32.9176ZM21.3568 29.0114C21.1994 28.8389 21.0001 28.7099 20.7942 28.6025C20.3459 28.3687 19.8557 28.2269 19.3689 28.0989V31.871C20.159 31.7817 21.0661 31.4949 21.4809 30.7573C21.679 30.4049 21.7184 29.972 21.6377 29.5798C21.594 29.3673 21.5036 29.1722 21.3568 29.0114ZM15.418 23.6448C15.4415 23.4052 15.5268 23.1799 15.6626 22.9816C16.0254 22.4519 16.6879 22.1757 17.2942 22.0463V25.4596C17.0542 25.3859 16.8316 25.3097 16.6336 25.2301C16.3977 25.1352 16.166 25.0233 15.9553 24.88C15.7676 24.752 15.5857 24.593 15.4989 24.3777C15.4077 24.1518 15.3945 23.8848 15.418 23.6448Z" fill="#11223E"/>
    <path opacity="0.25" d="M21.3566 28.9512C21.1991 28.7787 20.9999 28.6497 20.794 28.5423C20.3457 28.3085 19.8554 28.1667 19.3687 28.0387V31.8108C20.1588 31.7215 21.0659 31.4347 21.4807 30.6971C21.6788 30.3448 21.7182 29.9118 21.6375 29.5196C21.5937 29.3071 21.5033 29.112 21.3566 28.9512Z" fill="#11223E"/>
    <path opacity="0.25" d="M15.662 22.9214C15.5262 23.1197 15.441 23.3451 15.4174 23.5846C15.3939 23.8246 15.4071 24.0916 15.4983 24.3175C15.5851 24.5329 15.767 24.6918 15.9547 24.8198C16.1654 24.9631 16.3971 25.075 16.633 25.1699C16.831 25.2496 17.0536 25.3258 17.2937 25.3994V21.9861C16.6873 22.1155 16.0248 22.3917 15.662 22.9214Z" fill="#11223E"/>
</svg>
