<svg width="32" height="32" viewBox="0 0 32 32" fill="none" xmlns="http://www.w3.org/2000/svg">
    <mask id="mask0" mask-type="alpha" maskUnits="userSpaceOnUse" x="1" y="1" width="30" height="30">
        <circle cx="16" cy="16" r="15" fill="#CFCFD8"/>
    </mask>
    <g mask="url(#mask0)">
        <circle cx="16" cy="16" r="15" fill="#CFCFD8"/>
        <path d="M18 8L9 11.5V21L12 20V12L18 11V22.044L9 21L18 24L23 22.5V9.5L18 8Z" fill="#11223E"/>
    </g>
    <path d="M22 2.24813C20.1626 1.44534 18.1333 1 16 1C7.71573 1 1 7.71573 1 16C1 24.2843 7.71573 31 16 31C24.2843 31 31 24.2843 31 16C31 13.1721 30.2175 10.527 28.8571 8.26946" stroke="#11223E"/>
</svg>
