<svg width="19" height="16" viewBox="0 0 19 16" fill="none" xmlns="http://www.w3.org/2000/svg">
<path d="M10.6517 5.87162C10.6517 5.50402 10.4895 5.19606 10.2307 4.99147C9.98335 4.79595 9.67262 4.71207 9.37324 4.71207C9.06778 4.71207 8.75265 4.79356 8.5023 4.99149C8.23958 5.19917 8.08399 5.50898 8.08399 5.87162C8.08399 6.52703 8.12229 7.32061 8.15981 8.09791L8.16024 8.10684C8.19826 8.8945 8.23533 9.66514 8.23533 10.2939C8.23533 10.6329 8.39555 10.9067 8.64833 11.0742C8.69395 11.1044 8.74122 11.1304 8.78951 11.1526C8.34439 11.3723 8.0515 11.8319 8.0515 12.3483C8.0515 13.055 8.61963 13.6808 9.38406 13.6808C10.1119 13.6808 10.7058 13.0593 10.7058 12.3483C10.7058 11.8206 10.3898 11.356 9.93938 11.1416C9.97609 11.1239 10.0122 11.1043 10.0474 11.0825C10.2777 10.9398 10.5004 10.6781 10.5004 10.2939C10.5004 9.66514 10.5374 8.89451 10.5755 8.10685L10.5759 8.0979C10.6134 7.32062 10.6517 6.52703 10.6517 5.87162Z" fill="#11223E" stroke="#11223E"/>
<path d="M17.5883 13.6727L10.2459 1.49592C10.0603 1.18818 9.72714 1 9.36775 1C9.00836 1 8.67518 1.18814 8.48962 1.49592L1.14728 13.6727C0.956329 13.9894 0.950674 14.3844 1.13254 14.7064C1.31441 15.0284 1.65556 15.2275 2.02538 15.2275H16.7102C17.08 15.2275 17.4211 15.0284 17.603 14.7064C17.7849 14.3843 17.7792 13.9894 17.5883 13.6727ZM9.37324 5.21207C9.79493 5.21207 10.1517 5.44996 10.1517 5.87162C10.1517 7.15826 10.0004 9.00722 10.0004 10.2939C10.0004 10.6291 9.63274 10.7696 9.37324 10.7696C9.02728 10.7696 8.73533 10.629 8.73533 10.2939C8.73533 9.00722 8.58399 7.15826 8.58399 5.87162C8.58399 5.44996 8.92994 5.21207 9.37324 5.21207ZM9.38406 13.1808C8.90834 13.1808 8.5515 12.7915 8.5515 12.3483C8.5515 11.8941 8.9083 11.5157 9.38406 11.5157C9.82736 11.5157 10.2058 11.8941 10.2058 12.3483C10.2058 12.7915 9.82736 13.1808 9.38406 13.1808Z" fill="#CFCFD8"/>
</svg>
