<svg width="28" height="16" viewBox="0 0 28 16" fill="none" xmlns="http://www.w3.org/2000/svg">
<path d="M4.40005 4.40002L0.800049 8.00002L2.40005 10L6.40005 13.2L9.60005 14.8L15.2 15.6L20.4 14L24.4 11.2L27.2 8.00002C26.5334 7.20002 24.72 5.20002 22.8 3.60002C20.88 2.00002 18 1.06669 16.8 0.800024L12.8 0.400024L8.40005 1.60002L4.40005 4.40002Z" fill="#CFCFD8"/>
<path fill-rule="evenodd" clip-rule="evenodd" d="M14.0548 0C10.1745 0 6.52669 1.51387 3.7831 4.26377L0 8.0549L3.67353 11.7362C6.41712 14.4856 10.0649 16 13.9452 16C17.8255 16 21.4733 14.4861 24.2169 11.7362L28 7.9451L24.3265 4.26377C23.8444 3.78055 23.3343 3.33549 22.8 2.93011C20.64 1.32313 18.3406 0.573794 17.4609 0.4C16.3585 0.135822 15.217 0 14.0548 0ZM23.5428 11.0607C20.9793 13.6296 17.5706 15.0447 13.9452 15.0447C10.3198 15.0447 6.91115 13.6301 4.34716 11.0607L1.34726 8.05443L4.45673 4.93835C7.02072 2.3694 10.4294 0.954825 14.0548 0.954825C15.1276 0.954825 16.1814 1.07869 17.2 1.3197C18.2016 1.63368 20.1798 2.17539 22.1024 3.6C22.6468 4.00332 23.1648 4.45019 23.6524 4.93883L26.6523 7.9451L23.5428 11.0607Z" fill="#11223E"/>
<path d="M14 3.12501C11.0971 3.12501 8.72505 5.30637 8.72505 8.00001C8.72505 10.6937 11.0971 12.875 14 12.875C16.9025 12.875 19.275 10.6937 19.275 8.00001C19.275 5.30636 16.9025 3.12501 14 3.12501ZM14 11.9758C11.6157 11.9758 9.68672 10.1865 9.68672 8.00001C9.68672 5.81349 11.6161 4.02425 14 4.02425C16.384 4.02425 18.3134 5.81349 18.3134 8.00001C18.313 10.1865 16.384 11.9758 14 11.9758Z" fill="#11223E" stroke="#11223E" stroke-width="0.15"/>
</svg>
