<svg width="29" height="37" viewBox="0 0 29 37" fill="none" xmlns="http://www.w3.org/2000/svg">
<path d="M13.3058 24.9873L13.2737 25.276L12.8138 29.4123C12.8138 29.4123 12.8137 29.4124 12.8137 29.4124C12.8067 29.4766 12.8274 29.5419 12.8711 29.5907C12.9141 29.6389 12.9764 29.6668 13.0417 29.6668H15.9584C16.0236 29.6668 16.0859 29.6389 16.1289 29.5908L13.3058 24.9873ZM13.3058 24.9873L13.0709 24.8164M13.3058 24.9873L13.0709 24.8164M13.0709 24.8164C12.4521 24.3663 12.0834 23.6565 12.0834 22.8751C12.0834 21.5427 13.1676 20.4584 14.5001 20.4584C15.8326 20.4584 16.9168 21.5426 16.9168 22.8751C16.9168 23.6565 16.548 24.3663 15.9292 24.8164L15.6943 24.9873M13.0709 24.8164L15.6943 24.9873M15.6943 24.9873L15.7264 25.276M15.6943 24.9873L15.7264 25.276M15.7264 25.276L16.1863 29.4121C16.1863 29.4122 16.1863 29.4122 16.1863 29.4122M15.7264 25.276L16.1863 29.4122M16.1863 29.4122C16.1934 29.4764 16.1726 29.5418 16.129 29.5907L16.1863 29.4122ZM26.8958 13.6251H25.2083V11.2084C25.2083 5.30338 20.4051 0.500122 14.5 0.500122C8.59487 0.500122 3.79169 5.30338 3.79169 11.2084V13.6251H2.10419C1.425 13.6251 0.875 14.1751 0.875 14.8543V33.0835C0.875 34.9682 2.40692 36.5001 4.29169 36.5001H24.7084C26.5931 36.5001 28.125 34.9682 28.125 33.0834V14.8543C28.125 14.1751 27.575 13.6251 26.8958 13.6251ZM19.8333 13.6251H9.16669V11.2084C9.16669 8.26813 11.5597 5.87512 14.5 5.87512C17.4403 5.87512 19.8333 8.26813 19.8333 11.2084V13.6251Z" fill="#CFCFD8" stroke="#11223E"/>
</svg>
