<svg width="73" height="76" viewBox="0 0 73 76" fill="none" xmlns="http://www.w3.org/2000/svg">
<path d="M59.5205 50.4604C59.7386 51.9142 59.2782 52.5296 58.813 52.5296C58.3478 52.5296 57.6694 51.9384 56.9231 50.7657C56.1768 49.593 55.9152 48.2894 56.2786 47.6159C56.4147 47.3833 56.6355 47.2125 56.8949 47.1393C57.1542 47.0661 57.4318 47.0962 57.6694 47.2233C58.9051 47.6934 59.3897 49.5881 59.5205 50.4604ZM52.6732 53.649C54.1561 54.9041 54.6116 56.3966 53.8217 57.4482C53.5831 57.7431 53.2786 57.9779 52.9326 58.1336C52.5867 58.2893 52.209 58.3616 51.8301 58.3447C51.0009 58.3444 50.1982 58.0528 49.5622 57.5209C48.215 56.3433 47.8176 54.4292 48.6996 53.3437C48.8955 53.1223 49.1389 52.9481 49.4116 52.834C49.6844 52.7199 49.9793 52.6688 50.2745 52.6847C51.1624 52.715 52.0114 53.0563 52.6732 53.649ZM50.1921 65.7638C56.5839 65.7638 63.5184 67.9541 71.1943 74.7578C71.9648 75.441 72.9873 74.593 72.3185 73.745C64.7735 64.2179 57.7808 62.4056 50.8366 60.8742C42.3272 58.994 37.9466 54.2014 34.8791 48.9436C34.2734 47.8969 34.002 48.0811 33.9438 49.4282C33.8936 51.4251 34.0446 53.422 34.3945 55.3887C34.0504 55.3887 33.7064 55.3887 33.3575 55.3887C28.9966 55.3887 24.7337 54.0955 21.1078 51.6728C17.4819 49.25 14.6558 45.8065 12.987 41.7776C11.3182 37.7487 10.8815 33.3154 11.7323 29.0383C12.5831 24.7613 14.683 20.8325 17.7666 17.749C20.8502 14.6654 24.7789 12.5654 29.056 11.7147C33.333 10.8639 37.7663 11.3005 41.7952 12.9694C45.8241 14.6382 49.2677 17.4642 51.6904 21.0902C54.1132 24.7161 55.4063 28.979 55.4063 33.3398C55.4087 34.1963 55.3618 35.0522 55.2658 35.9033C52.9429 35.6119 50.5956 35.568 48.2635 35.7725C47.4251 35.8452 47.5463 36.2571 48.1763 36.3491C55.4451 37.6672 60.4703 42.1642 61.6188 50.4023C61.6254 50.4423 61.6438 50.4794 61.6717 50.5088C61.6995 50.5383 61.7356 50.5588 61.7751 50.5676C61.8147 50.5765 61.856 50.5733 61.8938 50.5585C61.9315 50.5437 61.964 50.518 61.9871 50.4846C65.7683 44.1637 67.3512 36.7691 66.489 29.4542C65.6268 22.1393 62.3679 15.3154 57.2206 10.0469C52.0734 4.77836 45.3272 1.36151 38.0343 0.329269C30.7414 -0.702975 23.312 0.707432 16.9048 4.3405C10.4976 7.97356 5.47288 13.625 2.61448 20.4133C-0.243929 27.2016 -0.775332 34.745 1.10315 41.867C2.98164 48.989 7.16439 55.2891 12.999 59.7845C18.8336 64.28 25.9919 66.718 33.3575 66.7184C38.2276 66.7087 43.0784 65.7589 50.1921 65.7589V65.7638Z" fill="#CFCFD8"/>
</svg>
