<svg width="36" height="31" viewBox="0 0 36 31" fill="none" xmlns="http://www.w3.org/2000/svg">
<path d="M20.0927 10.6697C20.0927 10.0846 19.8385 9.60651 19.4332 9.2862C19.0395 8.97495 18.528 8.82971 18.0111 8.82971C17.477 8.82971 16.9583 8.97256 16.5616 9.28621C16.1525 9.60962 15.9077 10.0895 15.9077 10.6697C15.9077 11.9887 15.985 13.591 16.0615 15.1768L16.062 15.1859C16.139 16.7822 16.2151 18.3615 16.2151 19.6539C16.2151 20.1658 16.4506 20.5623 16.8233 20.8093C17.1704 21.0393 17.6032 21.1204 18.0111 21.1204C18.3508 21.1204 18.7642 21.0313 19.1092 20.8176C19.4677 20.5954 19.7852 20.211 19.7852 19.6539C19.7852 18.3615 19.8613 16.7822 19.9384 15.1859L19.9388 15.1768C20.0154 13.5909 20.0927 11.9887 20.0927 10.6697ZM15.8417 23.8276C15.8417 24.9916 16.7779 26.019 18.0331 26.019C19.2182 26.019 20.2025 24.9959 20.2025 23.8276C20.2025 22.6331 19.214 21.6362 18.0331 21.6362C16.782 21.6362 15.8417 22.6374 15.8417 23.8276Z" stroke="white"/>
<path d="M34.7008 26.5183L19.784 1.77998C19.407 1.15476 18.7301 0.772461 18 0.772461C17.2698 0.772461 16.5929 1.1547 16.2159 1.77998L1.29922 26.5183C0.911278 27.1617 0.89979 27.9642 1.26927 28.6184C1.63876 29.2726 2.33184 29.6771 3.08316 29.6771H32.9168C33.6681 29.6771 34.3612 29.2725 34.7307 28.6184C35.1002 27.9641 35.0888 27.1617 34.7008 26.5183ZM18.0111 9.32971C18.8678 9.32971 19.5927 9.81302 19.5927 10.6697C19.5927 13.2836 19.2852 17.04 19.2852 19.6539C19.2852 20.3349 18.5383 20.6204 18.0111 20.6204C17.3083 20.6204 16.7151 20.3348 16.7151 19.6539C16.7151 17.04 16.4077 13.2836 16.4077 10.6697C16.4077 9.81302 17.1105 9.32971 18.0111 9.32971ZM18.0331 25.519C17.0666 25.519 16.3417 24.7282 16.3417 23.8276C16.3417 22.905 17.0665 22.1362 18.0331 22.1362C18.9337 22.1362 19.7025 22.905 19.7025 23.8276C19.7025 24.7282 18.9337 25.519 18.0331 25.519Z" fill="white" fill-opacity="0.25"/>
</svg>
