<svg width="36" height="35" viewBox="0 0 36 35" fill="none" xmlns="http://www.w3.org/2000/svg">
    <path d="M11.6719 21.094H30.7268C31.1987 21.094 31.6126 20.782 31.7403 20.3288L35.9594 5.56293C36.05 5.2446 35.9879 4.90265 35.7882 4.63815C35.5883 4.37448 35.2774 4.21875 34.9456 4.21875H9.23703L8.48309 0.826172C8.37598 0.343048 7.94751 0 7.45312 0H1.05469C0.471863 0 0 0.471863 0 1.05469C0 1.63779 0.471863 2.10938 1.05469 2.10938H6.60663L10.4153 19.248C9.29471 19.7353 8.50781 20.8507 8.50781 22.1487C8.50781 23.8933 9.92725 25.3128 11.6719 25.3128H30.7268C31.3099 25.3128 31.7815 24.8412 31.7815 24.2581C31.7815 23.6753 31.3099 23.2034 30.7268 23.2034H11.6719C11.091 23.2034 10.6172 22.7307 10.6172 22.1487C10.6172 21.5667 11.091 21.094 11.6719 21.094Z" fill="white" fill-opacity="0.25"/>
    <path d="M10.6172 30.9844C10.6172 32.7293 12.0366 34.1484 13.7815 34.1484C15.5262 34.1484 16.9456 32.7293 16.9456 30.9844C16.9456 29.2397 15.5262 27.8203 13.7815 27.8203C12.0366 27.8203 10.6172 29.2397 10.6172 30.9844Z" fill="white" fill-opacity="0.25"/>
    <path d="M25.4534 30.9844C25.4534 32.7293 26.8728 34.1484 28.6174 34.1484C30.3623 34.1484 31.7815 32.7293 31.7815 30.9844C31.7815 29.2397 30.3623 27.8203 28.6174 27.8203C26.8728 27.8203 25.4534 29.2397 25.4534 30.9844Z" fill="white" fill-opacity="0.25"/>
</svg>
