<svg width="15" height="12" viewBox="0 0 15 12" fill="none" xmlns="http://www.w3.org/2000/svg">
<path d="M13.6603 11.7856C13.9975 11.7856 14.2896 11.6742 14.538 11.4544L10.2883 7.20457C10.1864 7.27759 10.0876 7.34858 9.9942 7.41609C9.67617 7.6504 9.41806 7.83325 9.21986 7.96426C9.02168 8.09558 8.75801 8.22943 8.42888 8.36608C8.09952 8.5029 7.79269 8.57109 7.50805 8.57109H7.49972H7.49138C7.20672 8.57109 6.89988 8.50293 6.57056 8.36608C6.24123 8.22943 5.97756 8.09558 5.77958 7.96426C5.5814 7.83325 5.32343 7.65043 5.00524 7.41609C4.91657 7.35109 4.81823 7.27976 4.71191 7.20343L0.461426 11.4544C0.709763 11.6742 1.00211 11.7856 1.33925 11.7856H13.6603Z" fill="#AAAAB8"/>
<path d="M0.8455 4.52837C0.527501 4.31636 0.245505 4.07355 0 3.80005V10.2658L3.74564 6.52018C2.9963 5.99704 2.03081 5.33386 0.8455 4.52837Z" fill="#AAAAB8"/>
<path d="M14.1627 4.52837C13.0226 5.30004 12.0536 5.96436 11.2556 6.52168L14.9997 10.266V3.80005C14.7597 4.06805 14.4807 4.31069 14.1627 4.52837Z" fill="#AAAAB8"/>
<path d="M13.661 0H1.33991C0.910067 0 0.579595 0.145151 0.348088 0.435154C0.116391 0.725294 0.000732422 1.08815 0.000732422 1.5233C0.000732422 1.87479 0.154217 2.25565 0.46105 2.66597C0.767884 3.07612 1.09438 3.39829 1.44037 3.63262C1.63005 3.76664 2.20205 4.16429 3.15637 4.82545C3.67154 5.18245 4.11955 5.49361 4.50454 5.76213C4.8327 5.99078 5.1157 6.18879 5.34936 6.35311C5.37618 6.37193 5.41837 6.4021 5.47436 6.44213C5.53468 6.48546 5.61101 6.54045 5.70518 6.60845C5.88653 6.7396 6.03718 6.84562 6.15717 6.92661C6.27699 7.00763 6.42217 7.09812 6.59249 7.19861C6.76266 7.29896 6.92317 7.37443 7.07383 7.42462C7.22451 7.47478 7.36399 7.49994 7.49232 7.49994H7.50065H7.50898C7.63728 7.49994 7.77679 7.47478 7.9275 7.42462C8.07812 7.37443 8.2385 7.29913 8.40881 7.19861C8.57896 7.09812 8.72395 7.00743 8.84416 6.92661C8.96415 6.84562 9.1148 6.73963 9.29617 6.60845C9.39015 6.54045 9.46648 6.48544 9.5268 6.44227C9.58282 6.40208 9.62498 6.37209 9.65197 6.35311C9.83399 6.22645 10.1177 6.02926 10.499 5.76444C11.193 5.28228 12.215 4.57262 13.5693 3.63262C13.9766 3.34812 14.3169 3.0048 14.5904 2.60314C14.8634 2.20148 15.0003 1.78016 15.0003 1.33931C15.0003 0.970989 14.8676 0.655823 14.6028 0.393325C14.3376 0.131154 14.0237 0 13.661 0Z" fill="#AAAAB8"/>
</svg>
