<svg width="16" height="13" viewBox="0 0 16 13" fill="none" xmlns="http://www.w3.org/2000/svg">
<path d="M14.5988 0.0507485L0.331382 5.55035C-0.130743 5.7285 -0.102747 6.38446 0.372955 6.52339L3.99847 7.58238L5.35151 11.8292C5.49285 12.2728 6.06116 12.4073 6.39014 12.075L8.26462 10.1818L11.9425 12.8522C12.3926 13.179 13.0336 12.9362 13.1479 12.3956L15.5838 0.875834C15.7031 0.31156 15.1419 -0.158568 14.5988 0.0507485ZM12.8101 2.60728L6.18293 8.40413C6.11687 8.46192 6.07483 8.5419 6.065 8.62859L5.80984 10.8722C5.80151 10.9453 5.698 10.955 5.6759 10.8847L4.62614 7.53876C4.57806 7.38557 4.64074 7.2196 4.77853 7.13508L12.6045 2.33396C12.7845 2.22347 12.9687 2.46854 12.8101 2.60728Z" fill="#AAAAB8"/>
</svg>
