<svg width="33" height="35" viewBox="0 0 33 35" fill="#CFCFD8" xmlns="http://www.w3.org/2000/svg">
<path d="M21.8742 14.5829L21.8742 14.5829C20.2591 16.1981 18.3242 17.0001 16.0409 17.0001C13.7583 17.0001 11.8235 16.1981 10.2079 14.5829C8.59256 12.9677 7.79077 11.0328 7.79077 8.7499C7.79077 6.46731 8.59255 4.53237 10.2079 2.91681C11.823 1.30179 13.7583 0.500122 16.0409 0.500122C18.3236 0.500122 20.2586 1.30177 21.8742 2.91687C23.4894 4.53242 24.2913 6.46743 24.2913 8.7499C24.2913 11.0328 23.4894 12.9678 21.8742 14.5829Z" fill="#CFCFD8" stroke="#11223E"/>
<path d="M31.5047 26.7333L31.5047 26.733C31.4528 25.9869 31.3489 25.1769 31.1924 24.3029L31.5047 26.7333ZM31.5047 26.7333C31.5576 27.4884 31.5838 28.2629 31.5839 29.0571L31.5047 26.7333ZM29.6657 19.7676L29.6657 19.7675C29.2767 19.0829 28.8346 18.5076 28.3418 18.036C27.8618 17.5768 27.2694 17.2037 26.5557 16.9209L29.6657 19.7676ZM29.6657 19.7676C30.0595 20.4604 30.3719 21.1694 30.6041 21.8945L29.6657 19.7676ZM21.8133 18.0055L21.813 18.0057C21.1353 18.4379 20.272 18.8187 19.2369 19.153C18.1792 19.4949 17.1136 19.6672 16.041 19.6672C14.9688 19.6672 13.903 19.4949 12.8454 19.1529C11.8101 18.8186 10.9471 18.4378 10.2694 18.0057L10.2691 18.0055C9.63786 17.6022 9.07079 17.2368 8.56801 16.909L21.8133 18.0055ZM21.8133 18.0055C22.4446 17.6022 23.0119 17.2367 23.5144 16.909L21.8133 18.0055ZM0.890958 24.3028L0.890943 24.3029C0.733991 25.1768 0.63025 25.9862 0.578457 26.7329L0.890958 24.3028ZM0.890958 24.3028C1.047 23.4331 1.24333 22.6311 1.47884 21.8947L0.890958 24.3028ZM24.2339 16.5002C25.0909 16.504 25.8627 16.6467 26.5554 16.9208L24.2339 16.5002ZM24.2339 16.5002C24.2329 16.5006 24.2317 16.501 24.2305 16.5014C24.2009 16.512 24.1533 16.5325 24.0846 16.5677C23.9474 16.6379 23.7588 16.7498 23.5146 16.9089L24.2339 16.5002ZM7.84845 16.5002C7.84955 16.5006 7.8507 16.501 7.8519 16.5014C7.88149 16.512 7.92901 16.5325 7.99777 16.5677C8.13496 16.6379 8.32351 16.7498 8.56787 16.9089L7.84845 16.5002ZM7.84845 16.5002C6.99143 16.504 6.21959 16.6468 5.52734 16.9208C4.81301 17.2036 4.22045 17.577 3.74059 18.036L7.84845 16.5002ZM30.6041 21.8946C30.8397 22.631 31.0362 23.4331 31.1923 24.3027L30.6041 21.8946ZM24.2482 16.4956C24.2498 16.4952 24.2506 16.495 24.2506 16.495L24.2482 16.4956ZM7.83182 16.495C7.83181 16.495 7.83261 16.4952 7.83428 16.4957L7.83182 16.495ZM1.47891 21.8944C1.71109 21.1696 2.0235 20.4603 2.41708 19.7675L1.47891 21.8944ZM2.41709 19.7675C2.80601 19.083 3.24807 18.5077 3.74053 18.036L2.41709 19.7675ZM0.5 29.0571C0.5 28.2629 0.526136 27.4883 0.578453 26.7329L31.5839 29.0572C31.5839 30.7713 31.0671 32.0694 30.0756 33.013C29.0774 33.9627 27.7366 34.4582 25.9997 34.4582H6.08417C4.34708 34.4582 3.00612 33.9627 2.00811 33.013C1.01718 32.0693 0.5 30.7709 0.5 29.0571Z" fill="#CFCFD8" stroke="#11223E"/>
</svg>
