<svg width="33" height="19" viewBox="0 0 33 19" fill="none" xmlns="http://www.w3.org/2000/svg">
<path d="M31.5047 10.7333L31.5047 10.733C31.4528 9.98692 31.3489 9.17692 31.1924 8.30287L31.5047 10.7333ZM31.5047 10.7333C31.5576 11.4884 31.5838 12.2629 31.5839 13.0571L31.5047 10.7333ZM29.6657 3.76757L29.6657 3.76752C29.2767 3.08289 28.8346 2.50759 28.3418 2.03596C27.8618 1.5768 27.2694 1.2037 26.5557 0.920856L29.6657 3.76757ZM29.6657 3.76757C30.0595 4.4604 30.3719 5.1694 30.6041 5.89449L29.6657 3.76757ZM21.8133 2.0055L21.813 2.0057C21.1353 2.43789 20.272 2.81868 19.2369 3.15295C18.1792 3.49495 17.1136 3.66719 16.041 3.66719C14.9688 3.66719 13.903 3.49493 12.8454 3.15289C11.8101 2.81861 10.9471 2.43784 10.2694 2.00571L10.2691 2.00548C9.63786 1.6022 9.07079 1.2368 8.56801 0.909028L21.8133 2.0055ZM21.8133 2.0055C22.4446 1.60223 23.0119 1.23673 23.5144 0.909008L21.8133 2.0055ZM0.890958 8.30283L0.890943 8.30292C0.733991 9.17682 0.63025 9.98623 0.578457 10.7329L0.890958 8.30283ZM0.890958 8.30283C1.047 7.43313 1.24333 6.63109 1.47884 5.89465L0.890958 8.30283ZM24.2339 0.500201C25.0909 0.504034 25.8627 0.646721 26.5554 0.92076L24.2339 0.500201ZM24.2339 0.500201C24.2329 0.500582 24.2317 0.500988 24.2305 0.50142C24.2009 0.512031 24.1533 0.532468 24.0846 0.567675C23.9474 0.63791 23.7588 0.749753 23.5146 0.908889L24.2339 0.500201ZM7.84845 0.500201C7.84955 0.500582 7.8507 0.500989 7.8519 0.501421C7.88149 0.512024 7.92901 0.532451 7.99777 0.567657C8.13496 0.637899 8.32351 0.749756 8.56787 0.908938L7.84845 0.500201ZM7.84845 0.500201C6.99143 0.504028 6.21959 0.646753 5.52734 0.920813C4.81301 1.20363 4.22045 1.57704 3.74059 2.036L7.84845 0.500201ZM30.6041 5.8946C30.8397 6.63104 31.0362 7.43306 31.1923 8.3027L30.6041 5.8946ZM24.2482 0.495644C24.2498 0.495177 24.2506 0.495001 24.2506 0.49503L24.2482 0.495644ZM7.83182 0.495041C7.83181 0.495012 7.83261 0.495188 7.83428 0.495653L7.83182 0.495041ZM1.47891 5.89445C1.71109 5.1696 2.0235 4.46028 2.41708 3.76752L1.47891 5.89445ZM2.41709 3.7675C2.80601 3.08301 3.24807 2.50771 3.74053 2.03605L2.41709 3.7675ZM0.5 13.0571C0.5 12.2629 0.526136 11.4883 0.578453 10.7329L31.5839 13.0572C31.5839 14.7713 31.0671 16.0694 30.0756 17.013C29.0774 17.9627 27.7366 18.4582 25.9997 18.4582H6.08417C4.34708 18.4582 3.00612 17.9627 2.00811 17.013C1.01718 16.0693 0.5 14.7709 0.5 13.0571Z" fill="#CFCFD8" stroke="#11223E"/>
</svg>
