<svg width="75" height="75" viewBox="0 0 75 75" fill="none" xmlns="http://www.w3.org/2000/svg">
<path d="M58.9866 37.1106L52.3271 43.1511L58.3402 49.8325L64.9997 43.792L58.9866 37.1106Z" fill="#CFCFD8"/>
<path d="M45.717 42.5456L36.8359 50.5713L44.8341 59.4914L53.7151 51.4657L45.717 42.5456Z" fill="#CFCFD8"/>
<path d="M70.9997 34.9853L66.5637 38.9993L70.562 43.4527L74.998 39.4387L70.9997 34.9853Z" fill="#CFCFD8"/>
<path d="M47.1502 9.55627L40.4841 15.5803L46.4846 22.2725L53.1507 16.2485L47.1502 9.55627Z" fill="#CFCFD8"/>
<path d="M65.3235 21.6791L60.8965 25.6946L64.9001 30.1432L69.3271 26.1277L65.3235 21.6791Z" fill="#CFCFD8"/>
<path d="M39.418 27.0931L30.5286 35.1265L38.5267 44.0466L47.4162 36.0132L39.418 27.0931Z" fill="#CFCFD8"/>
<path d="M33.064 11.8899L24.1787 19.9194L32.1769 28.8395L41.0621 20.81L33.064 11.8899Z" fill="#CFCFD8"/>
<path d="M53.2723 23.0107L46.6228 29.0361L52.6361 35.7245L59.2856 29.6991L53.2723 23.0107Z" fill="#CFCFD8"/>
<path d="M59.6196 8.44845L55.1836 12.4624L59.1819 16.9158L63.6179 12.9019L59.6196 8.44845Z" fill="#CFCFD8"/>
<path d="M64.8584 50.6342L58.1951 56.6619L64.203 63.3556L70.8663 57.3279L64.8584 50.6342Z" fill="#CFCFD8"/>
<path d="M53.1679 58.2128L44.4829 66.2524L29.8202 49.8706L33.8982 46.2676L23.6321 34.7278L27.7328 31.1191L17.3131 19.5908L33.574 4.89341L38.7384 10.5691L47.4575 2.7579L52.6105 8.11952L56.0458 5.03045C55.278 4.58507 54.5102 4.17395 53.731 3.80281C48.7771 1.37038 43.2146 0 37.3563 0C16.7842 0 0 16.8443 0 37.5029C0 58.1557 16.7842 75 37.3563 75C44.0393 75 50.3355 73.2242 55.7672 70.1123C57.5588 69.0959 59.1911 67.9939 60.6812 66.8348L53.1679 58.2128Z" fill="#CFCFD8"/>
</svg>
