<svg width="50" height="50" viewBox="0 0 50 50" fill="none" xmlns="http://www.w3.org/2000/svg">
<path d="M39.3264 24.742L34.8867 28.769L38.8954 33.2233L43.3351 29.1963L39.3264 24.742Z" fill="white"/>
<path d="M30.4803 28.3646L24.5596 33.7151L29.8917 39.6618L35.8124 34.3113L30.4803 28.3646Z" fill="white"/>
<path d="M47.3343 23.3231L44.377 25.999L47.0425 28.968L49.9998 26.292L47.3343 23.3231Z" fill="white"/>
<path d="M31.4323 6.37017L26.9883 10.3862L30.9886 14.8477L35.4326 10.8317L31.4323 6.37017Z" fill="white"/>
<path d="M43.549 14.4514L40.5977 17.1284L43.2668 20.0941L46.2181 17.4172L43.549 14.4514Z" fill="white"/>
<path d="M26.2784 18.0619L20.3521 23.4175L25.6842 29.3642L31.6105 24.0087L26.2784 18.0619Z" fill="white"/>
<path d="M22.0431 7.92556L16.1196 13.2786L21.4517 19.2253L27.3753 13.8723L22.0431 7.92556Z" fill="white"/>
<path d="M35.5141 15.3403L31.0811 19.3572L35.0899 23.816L39.523 19.7991L35.5141 15.3403Z" fill="white"/>
<path d="M39.7483 5.63062L36.791 8.30664L39.4565 11.2756L42.4138 8.59961L39.7483 5.63062Z" fill="white"/>
<path d="M43.2391 33.7552L38.7969 37.7737L42.8021 42.2362L47.2444 38.2177L43.2391 33.7552Z" fill="white"/>
<path d="M35.4453 38.8088L29.6553 44.1685L19.8801 33.2473L22.5988 30.8453L15.7547 23.1521L18.4886 20.7463L11.5421 13.0608L22.3827 3.26251L25.8256 7.0463L31.6384 1.83884L35.0737 5.41326L37.3639 3.35387C36.852 3.05696 36.3401 2.78288 35.8206 2.53545C32.518 0.913828 28.8097 0.000244141 24.9042 0.000244141C11.1895 0.000244141 0 11.2298 0 25.0021C0 38.7707 11.1895 50.0002 24.9042 50.0002C29.3595 50.0002 33.557 48.8164 37.1781 46.7418C38.3725 46.0642 39.4607 45.3295 40.4542 44.5568L35.4453 38.8088Z" fill="white"/>
</svg>
